# xmcd CD database file
#
# Track frame offsets:
#	150
#	61563
#	97946
#	121616
#	161599
#	194309
#	222429
#	260079
#	291793
#
# Disc length: 4160 seconds
#
# Revision: 20
# Processed by: cddbd v1.5.1PL0 Copyright (c) Steve Scherf et al.
# Submitted via: CDex 1.51
#
DISCID=79103e09
DTITLE=Jan Garbarek - Best Works - Volume 2
DYEAR=1900
DGENRE=Jazz
TTITLE0=He Comes From The North
TTITLE1=Brother Wind
TTITLE2=Part One
TTITLE3=Buena Hora, Buenos Vientos
TTITLE4=The Healing Smoke
TTITLE5=Desolate Mountains III
TTITLE6=Rites
TTITLE7=Where The Rivers Meet
TTITLE8=O Salutaris Hostia
EXTD=
EXTT0=
EXTT1=
EXTT2=
EXTT3=
EXTT4=
EXTT5=
EXTT6=
EXTT7=
EXTT8=
PLAYORDER=
